HIERARCHY
ROOT Hips
{
	OFFSET 0.000000 100.481300 0.000000
	CHANNELS 6 Xposition Yposition Zposition Xrotation Yrotation Zrotation 
	JOINT Spine
	{
		OFFSET -0.279200 12.230698 -2.892100
		CHANNELS 3 Xrotation Yrotation Zrotation
		JOINT Spine1
		{
			OFFSET -0.232667 10.192268 -1.242267
			CHANNELS 3 Xrotation Yrotation Zrotation
			JOINT Spine1_split
			{
				OFFSET -0.232667 10.192268 -1.242267
				CHANNELS 3 Xrotation Yrotation Zrotation
				JOINT Spine2
				{
					OFFSET -0.232667 10.192268 -1.242267
					CHANNELS 3 Xrotation Yrotation Zrotation
					JOINT Neck
					{
						OFFSET -0.418800 17.814194 8.416900
						CHANNELS 3 Xrotation Yrotation Zrotation
						JOINT Head
						{
							OFFSET 0.000000 7.031097 3.806800
							CHANNELS 3 Xrotation Yrotation Zrotation
							JOINT HeadTop_End
							{
								OFFSET 0.000000 24.646606 12.978600
								CHANNELS 3 Xrotation Yrotation Zrotation
								End Site
								{
									OFFSET 0.000000 0.000000 0.000000
								}
							}
						}
					}
					JOINT LeftShoulder
					{
						OFFSET 8.476499 7.247704 -3.868750
						CHANNELS 3 Xrotation Yrotation Zrotation
						JOINT LeftShoulder_split
						{
							OFFSET 8.476499 7.247704 -3.868750
							CHANNELS 3 Xrotation Yrotation Zrotation
							JOINT LeftArm
							{
								OFFSET 9.308998 -2.777710 0.208600
								CHANNELS 3 Xrotation Yrotation Zrotation
								JOINT LeftForeArm
								{
									OFFSET 29.972298 0.000000 0.000000
									CHANNELS 3 Xrotation Yrotation Zrotation
									JOINT LeftHand
									{
										OFFSET 26.026505 0.000000 0.000000
										CHANNELS 3 Xrotation Yrotation Zrotation
										JOINT LeftHandThumb1
										{
											OFFSET 12.240501 -7.147949 9.207150
											CHANNELS 3 Xrotation Yrotation Zrotation
											JOINT LeftHandThumb2
											{
												OFFSET 4.138618 -2.389435 2.389433
												CHANNELS 3 Xrotation Yrotation Zrotation
												JOINT LeftHandThumb3
												{
													OFFSET 2.726913 -1.574387 1.574386
													CHANNELS 3 Xrotation Yrotation Zrotation
													JOINT LeftHandThumb4
													{
														OFFSET 3.941010 -2.275345 2.275342
														CHANNELS 3 Xrotation Yrotation Zrotation
														End Site
														{
															OFFSET 0.000000 0.000000 0.000000
														}
													}
												}
											}
										}
										JOINT LeftHandIndex1
										{
											OFFSET 24.424698 -1.985611 5.953459
											CHANNELS 3 Xrotation Yrotation Zrotation
											JOINT LeftHandIndex2
											{
												OFFSET 6.426697 0.000000 0.000000
												CHANNELS 3 Xrotation Yrotation Zrotation
												JOINT LeftHandIndex3
												{
													OFFSET 5.337898 0.000000 0.000000
													CHANNELS 3 Xrotation Yrotation Zrotation
													JOINT LeftHandIndex4
													{
														OFFSET 4.409401 0.000000 0.000000
														CHANNELS 3 Xrotation Yrotation Zrotation
														End Site
														{
															OFFSET 0.000000 0.000000 0.000000
														}
													}
												}
											}
										}
										JOINT LeftHandMiddle1
										{
											OFFSET 23.810104 0.000000 0.000000
											CHANNELS 3 Xrotation Yrotation Zrotation
											JOINT LeftHandMiddle2
											{
												OFFSET 7.176498 0.000000 0.000000
												CHANNELS 3 Xrotation Yrotation Zrotation
												JOINT LeftHandMiddle3
												{
													OFFSET 6.774902 0.000000 0.000000
													CHANNELS 3 Xrotation Yrotation Zrotation
													JOINT LeftHandMiddle4
													{
														OFFSET 5.403328 0.000000 0.000000
														CHANNELS 3 Xrotation Yrotation Zrotation
														End Site
														{
															OFFSET 0.000000 0.000000 0.000000
														}
													}
												}
											}
										}
										JOINT LeftHandRing1
										{
											OFFSET 22.908401 -0.839279 -6.020567
											CHANNELS 3 Xrotation Yrotation Zrotation
											JOINT LeftHandRing2
											{
												OFFSET 6.337502 0.000000 0.000000
												CHANNELS 3 Xrotation Yrotation Zrotation
												JOINT LeftHandRing3
												{
													OFFSET 5.779297 0.000000 0.000000
													CHANNELS 3 Xrotation Yrotation Zrotation
													JOINT LeftHandRing4
													{
														OFFSET 4.965698 0.000000 0.000000
														CHANNELS 3 Xrotation Yrotation Zrotation
														End Site
														{
															OFFSET 0.000000 0.000000 0.000000
														}
													}
												}
											}
										}
										JOINT LeftHandPinky1
										{
											OFFSET 20.037003 -1.530319 -10.950146
											CHANNELS 3 Xrotation Yrotation Zrotation
											JOINT LeftHandPinky2
											{
												OFFSET 5.254700 0.000000 0.000000
												CHANNELS 3 Xrotation Yrotation Zrotation
												JOINT LeftHandPinky3
												{
													OFFSET 4.810204 0.000000 0.000000
													CHANNELS 3 Xrotation Yrotation Zrotation
													JOINT LeftHandPinky4
													{
														OFFSET 3.647202 0.000000 0.000000
														CHANNELS 3 Xrotation Yrotation Zrotation
														End Site
														{
															OFFSET 0.000000 0.000000 0.000000
														}
													}
												}
											}
										}
									}
								}
							}
						}
					}
					JOINT RightShoulder
					{
						OFFSET -7.570500 7.247704 -3.868750
						CHANNELS 3 Xrotation Yrotation Zrotation
						JOINT RightShoulder_split
						{
							OFFSET -7.570500 7.247704 -3.868750
							CHANNELS 3 Xrotation Yrotation Zrotation
							JOINT RightArm
							{
								OFFSET -9.308998 -2.777710 0.208500
								CHANNELS 3 Xrotation Yrotation Zrotation
								JOINT RightForeArm
								{
									OFFSET -29.972300 0.000000 0.000000
									CHANNELS 3 Xrotation Yrotation Zrotation
									JOINT RightHand
									{
										OFFSET -26.026505 0.000000 0.000000
										CHANNELS 3 Xrotation Yrotation Zrotation
										JOINT RightHandThumb1
										{
											OFFSET -12.240601 -7.148026 9.207092
											CHANNELS 3 Xrotation Yrotation Zrotation
											JOINT RightHandThumb2
											{
												OFFSET -4.138618 -2.389435 2.389433
												CHANNELS 3 Xrotation Yrotation Zrotation
												JOINT RightHandThumb3
												{
													OFFSET -2.726974 -1.574417 1.574421
													CHANNELS 3 Xrotation Yrotation Zrotation
													JOINT RightHandThumb4
													{
														OFFSET -3.941010 -2.275345 2.275343
														CHANNELS 3 Xrotation Yrotation Zrotation
														End Site
														{
															OFFSET 0.000000 0.000000 0.000000
														}
													}
												}
											}
										}
										JOINT RightHandIndex1
										{
											OFFSET -24.424698 -1.985657 5.953444
											CHANNELS 3 Xrotation Yrotation Zrotation
											JOINT RightHandIndex2
											{
												OFFSET -6.426697 0.000000 0.000000
												CHANNELS 3 Xrotation Yrotation Zrotation
												JOINT RightHandIndex3
												{
													OFFSET -5.337898 0.000000 0.000000
													CHANNELS 3 Xrotation Yrotation Zrotation
													JOINT RightHandIndex4
													{
														OFFSET -4.409401 0.000000 0.000000
														CHANNELS 3 Xrotation Yrotation Zrotation
														End Site
														{
															OFFSET 0.000000 0.000000 0.000000
														}
													}
												}
											}
										}
										JOINT RightHandMiddle1
										{
											OFFSET -23.810097 0.000000 0.000000
											CHANNELS 3 Xrotation Yrotation Zrotation
											JOINT RightHandMiddle2
											{
												OFFSET -7.176498 0.000000 0.000000
												CHANNELS 3 Xrotation Yrotation Zrotation
												JOINT RightHandMiddle3
												{
													OFFSET -6.774902 0.000000 0.000000
													CHANNELS 3 Xrotation Yrotation Zrotation
													JOINT RightHandMiddle4
													{
														OFFSET -5.403328 0.000000 0.000000
														CHANNELS 3 Xrotation Yrotation Zrotation
														End Site
														{
															OFFSET 0.000000 0.000000 0.000000
														}
													}
												}
											}
										}
										JOINT RightHandRing1
										{
											OFFSET -22.908302 -0.839325 -6.020576
											CHANNELS 3 Xrotation Yrotation Zrotation
											JOINT RightHandRing2
											{
												OFFSET -6.337502 0.000000 0.000000
												CHANNELS 3 Xrotation Yrotation Zrotation
												JOINT RightHandRing3
												{
													OFFSET -5.779297 0.000000 0.000000
													CHANNELS 3 Xrotation Yrotation Zrotation
													JOINT RightHandRing4
													{
														OFFSET -4.965698 0.000000 0.000000
														CHANNELS 3 Xrotation Yrotation Zrotation
														End Site
														{
															OFFSET 0.000000 0.000000 0.000000
														}
													}
												}
											}
										}
										JOINT RightHandPinky1
										{
											OFFSET -20.037003 -1.530334 -10.950259
											CHANNELS 3 Xrotation Yrotation Zrotation
											JOINT RightHandPinky2
											{
												OFFSET -5.254700 0.000000 0.000000
												CHANNELS 3 Xrotation Yrotation Zrotation
												JOINT RightHandPinky3
												{
													OFFSET -4.810204 0.000000 0.000000
													CHANNELS 3 Xrotation Yrotation Zrotation
													JOINT RightHandPinky4
													{
														OFFSET -3.647202 0.000000 0.000000
														CHANNELS 3 Xrotation Yrotation Zrotation
														End Site
														{
															OFFSET 0.000000 0.000000 0.000000
														}
													}
												}
											}
										}
									}
								}
							}
						}
					}
				}
			}
		}
	}
	JOINT LeftUpLeg
	{
		OFFSET 15.427100 -6.655098 0.678600
		CHANNELS 3 Xrotation Yrotation Zrotation
		JOINT LeftLeg
		{
			OFFSET 4.081073 -39.591068 13.024000
			CHANNELS 3 Xrotation Yrotation Zrotation
			JOINT LeftFoot
			{
				OFFSET -4.081074 -37.707932 -15.979700
				CHANNELS 3 Xrotation Yrotation Zrotation
				JOINT LeftToeBase
				{
					OFFSET 5.346399 -15.068900 20.645000
					CHANNELS 3 Xrotation Yrotation Zrotation
					JOINT LeftToe_End
					{
						OFFSET 2.754700 0.931300 11.300900
						CHANNELS 3 Xrotation Yrotation Zrotation
						End Site
						{
							OFFSET 0.000000 0.000000 0.000000
						}
					}
				}
			}
		}
	}
	JOINT RightUpLeg
	{
		OFFSET -15.569500 -6.655098 0.678600
		CHANNELS 3 Xrotation Yrotation Zrotation
		JOINT RightLeg
		{
			OFFSET -4.081825 -39.591045 13.023800
			CHANNELS 3 Xrotation Yrotation Zrotation
			JOINT RightFoot
			{
				OFFSET 4.081824 -37.707954 -15.979600
				CHANNELS 3 Xrotation Yrotation Zrotation
				JOINT RightToeBase
				{
					OFFSET -5.346400 -15.068900 20.645000
					CHANNELS 3 Xrotation Yrotation Zrotation
					JOINT RightToe_End
					{
						OFFSET -2.754700 0.931300 11.300900
						CHANNELS 3 Xrotation Yrotation Zrotation
						End Site
						{
							OFFSET 0.000000 0.000000 0.000000
						}
					}
				}
			}
		}
	}
}
MOTION
Frames: 4
Frame Time: 0.016667
4.816054 92.096451 3.953372 -0.170858 18.934949 6.220125 0.076506 7.007417 10.782392 8.389054 6.747481 0.422349 0.000000 0.000000 0.000000 0.206959 6.614093 0.368026 -13.227446 -19.480639 1.743819 5.179464 -17.358822 -2.364416 -0.000001 0.000000 0.000001 -0.154063 9.312174 20.132346 0.000000 0.000000 0.000000 -63.723377 6.157087 -31.462460 318.740804 -20.602965 373.295820 -53.062760 28.769730 30.735558 17.551616 -5.699206 -12.932293 10.850450 26.127712 8.644853 20.927015 51.115865 0.218765 0.000001 0.000001 0.000001 13.980910 1.201546 -55.004371 0.370811 1.161714 -65.441880 1.983968 2.147973 -57.665136 0.000002 -0.000000 0.000001 7.504728 1.174487 -63.778517 1.807803 1.475670 -64.567937 0.130346 -0.912239 -43.272517 -0.000002 0.000001 -0.000002 8.574333 2.179150 -75.149006 -0.207663 1.009299 -57.855063 0.443120 1.742171 -53.581270 0.000000 0.000000 0.000001 10.030064 13.637039 -84.750251 0.877099 0.062317 -64.595503 1.141290 1.253112 -55.016337 -0.000002 0.000001 -0.000000 5.429958 9.442467 5.676211 0.000000 0.000000 0.000000 15.856540 -66.495252 55.369946 -0.248998 19.228890 37.981541 72.680507 -1.056080 4.143525 15.788541 -2.734517 -17.205810 -2.832777 -29.366593 12.741424 1.549765 -21.136932 -0.203053 0.000001 -0.000002 -0.000002 3.460504 -3.220953 22.317858 -2.139065 -2.479453 34.133836 -1.901589 -4.823226 29.633800 -0.000002 0.000000 -0.000000 -1.981750 -5.708783 28.547056 0.291809 -5.115395 57.918502 -0.653268 -1.226454 30.651922 0.000001 0.000000 0.000003 -3.258547 -8.570306 35.335690 4.048572 -4.073920 65.874490 2.135985 -3.202276 38.603905 0.000000 -0.000001 0.000000 -5.950109 -17.426352 53.146815 10.727143 -2.565952 58.259430 6.418951 -3.089221 38.747346 0.000000 0.000000 -0.000000 -19.934870 -6.311711 -4.717625 19.578438 0.936174 -4.312785 0.130008 10.422844 0.129430 -1.917214 0.119894 -0.781989 -0.000000 0.000003 -0.000000 9.091182 -11.663604 -15.477374 22.523140 -18.774711 2.406653 -8.053635 -34.843124 26.275982 -6.991147 -0.014925 -0.120594 -0.000000 0.000000 0.000000 
4.730268 91.851959 4.223801 0.438171 23.710150 5.365703 -1.164644 7.328754 10.932644 7.340191 7.401400 -0.347056 0.000000 0.000000 0.000000 0.687531 7.224079 -0.473163 -14.981687 -22.379391 3.474327 6.383155 -19.162915 -1.752120 -0.000000 -0.000000 -0.000002 -0.958327 11.589824 16.054732 0.000000 0.000000 0.000000 -66.492103 6.731941 -32.420920 309.931445 -20.341212 375.357171 -52.110143 22.279601 29.101848 17.551617 -5.699204 -12.932293 10.850447 26.127716 8.644857 20.927011 51.115872 0.218766 0.000001 0.000000 0.000000 13.980910 1.201550 -55.004367 0.370811 1.161712 -65.441880 1.983970 2.147975 -57.665142 -0.000002 -0.000000 0.000000 7.504733 1.174488 -63.778510 1.807801 1.475668 -64.567937 0.130345 -0.912243 -43.272517 0.000001 -0.000002 -0.000000 8.574334 2.179153 -75.148999 -0.207662 1.009297 -57.855056 0.443119 1.742167 -53.581270 0.000002 -0.000001 -0.000001 10.030067 13.637039 -84.750251 0.877095 0.062318 -64.595503 1.141288 1.253113 -55.016344 0.000001 -0.000001 -0.000001 5.228952 9.723378 6.084447 0.000000 0.000000 0.000000 10.668941 -68.209418 51.667540 -0.500523 18.866876 38.212368 79.163607 0.444256 3.903840 15.788537 -2.734480 -17.205813 -2.817457 -29.403698 12.657783 1.442636 -20.888496 -0.184265 0.000000 -0.000001 -0.000001 3.434958 -3.235366 22.125542 -2.139761 -2.479373 33.905073 -1.901739 -4.823962 29.405013 -0.000000 -0.000000 0.000000 -1.981951 -5.708343 28.331285 0.291627 -5.115298 57.471623 -0.653962 -1.226228 30.444134 -0.000001 -0.000001 0.000004 -3.259468 -8.570104 34.996503 4.048351 -4.073820 65.399294 2.134222 -3.200701 38.277193 0.000000 0.000000 -0.000001 -6.000666 -17.333605 52.703891 10.727020 -2.565880 57.922900 6.418847 -3.088844 38.410750 -0.000000 0.000000 -0.000000 -22.236039 -9.122236 -5.415034 20.182227 0.109797 -4.450623 0.810099 9.520732 0.333564 -1.888314 0.117166 -0.774290 0.000000 -0.000002 -0.000000 10.396096 -16.119168 -13.622082 21.021026 -17.961176 2.118850 -9.013889 -33.583186 26.068015 -7.886823 -0.013851 -0.038136 -0.000000 0.000002 -0.000000 
4.648060 91.588226 4.447723 1.120511 27.846306 4.564572 -2.215998 7.674093 10.729455 6.409502 8.037275 -1.007984 0.000000 0.000000 0.000000 1.207253 7.779492 -1.226568 -16.665346 -24.736640 4.961176 7.293001 -20.429635 -1.343613 -0.000000 -0.000000 0.000001 -1.386119 13.153988 11.553608 0.000000 0.000000 0.000000 -68.111411 6.494232 -33.152417 305.017233 -21.210150 374.224125 -51.626224 18.333271 27.120504 17.551619 -5.699211 -12.932295 10.850452 26.127716 8.644850 20.927022 51.115876 0.218766 -0.000002 -0.000000 0.000000 13.980908 1.201538 -55.004364 0.370815 1.161711 -65.441873 1.983967 2.147976 -57.665136 -0.000001 -0.000001 -0.000002 7.504732 1.174483 -63.778517 1.807803 1.475667 -64.567937 0.130343 -0.912244 -43.272517 0.000002 -0.000001 0.000001 8.574334 2.179151 -75.148999 -0.207666 1.009298 -57.855063 0.443121 1.742169 -53.581270 0.000000 0.000002 -0.000000 10.030066 13.637032 -84.750251 0.877099 0.062317 -64.595503 1.141287 1.253112 -55.016337 0.000001 -0.000002 0.000001 5.052230 10.207464 6.320876 0.000000 0.000000 0.000000 6.135817 -67.294528 48.041191 0.327614 18.396966 37.774552 83.008587 -0.368259 3.065866 15.788532 -2.734530 -17.205805 -2.808247 -29.432641 12.569105 1.336071 -20.641580 -0.165097 -0.000000 -0.000000 -0.000000 3.396518 -3.255171 21.917858 -2.140523 -2.479415 33.642237 -1.901924 -4.824719 29.142112 -0.000001 0.000000 -0.000001 -1.982226 -5.708098 28.088040 0.291439 -5.115158 56.979132 -0.654731 -1.226119 30.213031 0.000001 0.000001 -0.000000 -3.260377 -8.569929 34.620098 4.048111 -4.073713 64.869121 2.132318 -3.199070 37.919673 0.000001 0.000001 -0.000001 -6.047927 -17.233599 52.206455 10.726885 -2.565850 57.544842 6.418762 -3.088697 38.032662 0.000000 -0.000000 0.000001 -24.415797 -11.793214 -6.208890 20.740208 -0.310846 -4.568521 1.417705 8.708519 0.352422 -1.859383 0.114630 -0.766584 0.000000 -0.000000 0.000000 11.451704 -20.812244 -11.966526 19.596948 -16.314489 1.902715 -10.277770 -32.041336 25.350812 -8.763776 -0.012943 0.039910 0.000000 -0.000000 -0.000000 
4.580150 91.360962 4.617651 1.776262 30.780613 3.946088 -3.132000 8.031106 10.278128 5.554688 8.658325 -1.589349 0.000000 0.000000 0.000000 1.738244 8.299229 -1.912931 -18.260210 -26.743044 6.305344 8.037615 -21.371752 -1.064209 -0.000000 0.000001 0.000001 -1.577757 14.389622 6.973791 0.000000 0.000000 0.000000 -69.478023 6.137855 -33.977964 302.849468 -21.535462 372.111629 -50.465488 13.830747 25.019678 17.551616 -5.699207 -12.932293 10.850450 26.127712 8.644855 20.927020 51.115879 0.218771 -0.000001 -0.000002 -0.000002 13.980906 1.201548 -55.004367 0.370816 1.161711 -65.441873 1.983968 2.147976 -57.665136 -0.000001 -0.000002 -0.000003 7.504730 1.174485 -63.778517 1.807801 1.475669 -64.567937 0.130347 -0.912240 -43.272520 0.000002 -0.000003 0.000002 8.574333 2.179153 -75.149006 -0.207661 1.009297 -57.855056 0.443115 1.742167 -53.581267 0.000000 0.000001 0.000001 10.030066 13.637036 -84.750251 0.877098 0.062317 -64.595503 1.141289 1.253114 -55.016340 -0.000000 0.000002 -0.000001 4.894000 10.841108 6.313585 0.000000 0.000000 0.000000 4.878240 -64.300890 47.139097 1.435499 17.723762 37.243515 83.415809 -3.115075 2.073298 15.788525 -2.734515 -17.205817 -2.805456 -29.452773 12.475408 1.229961 -20.397981 -0.145660 0.000001 0.000000 -0.000001 3.344296 -3.280450 21.694660 -2.141381 -2.479325 33.343898 -1.902079 -4.825280 28.843824 -0.000001 -0.000001 0.000000 -1.982592 -5.707903 27.816406 0.291207 -5.115003 56.439991 -0.655571 -1.225896 29.957920 -0.000002 -0.000001 0.000001 -3.261292 -8.569709 34.205546 4.047804 -4.073585 64.282435 2.130604 -3.197223 37.530831 -0.000001 0.000001 -0.000001 -6.091011 -17.126358 51.652909 10.726734 -2.565684 57.123836 6.418629 -3.088601 37.611762 -0.000000 -0.000001 0.000001 -26.257516 -14.283392 -7.145524 21.110149 -0.919622 -4.691674 1.854905 9.127035 0.285336 -1.830466 0.112120 -0.758883 0.000000 0.000002 0.000000 12.205278 -24.081403 -10.702462 18.620486 -15.215571 1.762927 -11.248286 -30.999695 24.824025 -9.230062 -0.012051 0.080784 -0.000000 0.000002 0.000000 
